<svg width="16" height="16" viewBox="0 0 16 16" fill="none" xmlns="http://www.w3.org/2000/svg">
    <path
        d="M7.99853 1.30212C7.50453 1.30212 7.0032 1.37812 6.49853 1.51012C6.14253 1.60412 5.94653 1.96679 6.03986 2.32279C6.13386 2.67879 6.49653 2.89546 6.85253 2.80212C7.2512 2.69746 7.62453 2.63546 7.99853 2.63546C8.38386 2.63546 8.76786 2.69746 9.1652 2.80212C9.5212 2.89546 9.88386 2.67879 9.97786 2.32279C10.0712 1.96679 9.85453 1.60412 9.49853 1.51012C8.99453 1.37812 8.50253 1.30212 7.99853 1.30212ZM7.99853 3.30212C5.05319 3.30212 2.66519 5.69012 2.66519 8.63546C2.66519 11.5808 5.05319 13.9688 7.99853 13.9688C10.9439 13.9688 13.3319 11.5808 13.3319 8.63546C13.3319 5.69012 10.9439 3.30212 7.99853 3.30212ZM12.6652 3.30212C12.2972 3.30212 11.9985 3.60079 11.9985 3.96879C11.9985 4.33679 12.2972 4.63546 12.6652 4.63546C13.0332 4.63546 13.3319 4.33679 13.3319 3.96879C13.3319 3.60079 13.0332 3.30212 12.6652 3.30212ZM7.99853 5.96879C8.36653 5.96879 8.6652 6.26746 8.6652 6.63546V8.34346L9.81119 9.48946C10.0712 9.75013 10.0712 10.1875 9.81119 10.4481C9.55053 10.7081 9.1132 10.7081 8.85253 10.4481L7.5192 9.11479C7.39453 8.98945 7.33186 8.81212 7.33186 8.63546V6.63546C7.33186 6.26746 7.63053 5.96879 7.99853 5.96879Z"
        fill="#5A606C"
        fill-rule="evenodd" clip-rule="evenodd" />
</svg>