<svg width="16" height="16" viewBox="0 0 16 16" fill="none" xmlns="http://www.w3.org/2000/svg">
<path d="M7.34354 1.33258C7.17307 1.33258 6.99529 1.38992 6.86477 1.51992C6.7609 1.62458 6.82149 1.59658 6.4486 1.89524C5.78738 2.42524 5.48241 2.96925 5.38719 3.99925C4.73263 3.99925 3.41218 3.99925 3.34825 3.99925C2.98069 3.99925 2.68237 4.29791 2.68237 4.66591V9.24925C2.68237 11.0239 3.65855 12.5459 4.99231 13.3326H4.01413C3.64657 13.3326 3.34825 13.6312 3.34825 13.9992C3.34825 14.3672 3.64657 14.6659 4.01413 14.6659H12.0047C12.3723 14.6659 12.6706 14.3672 12.6706 13.9992C12.6706 13.6312 12.3723 13.3326 12.0047 13.3326H11.0059C12.4116 12.5019 13.3365 10.9532 13.3365 9.33258C14.8074 9.33258 16 8.13858 16 6.66591C16 5.19325 14.8074 3.99925 13.3365 3.99925C12.7279 3.99925 12.8371 3.99925 12.6706 3.99925C12.6499 3.99925 12.1053 3.99925 12.0047 3.99925C11.7117 3.99925 10.7981 3.99925 10.0697 3.99925C10.1282 3.48191 10.2388 3.21792 10.5897 2.93658C11.0232 2.58925 10.9946 2.63524 11.1517 2.47858C11.4114 2.21791 11.4114 1.78058 11.1517 1.51992C11.0212 1.38992 10.8434 1.33258 10.6729 1.33258C10.5025 1.33258 10.3247 1.38992 10.1942 1.51992C10.0903 1.62458 10.1509 1.59658 9.778 1.89524C9.12145 2.42124 8.83311 2.98258 8.73789 3.99925C7.84428 3.99925 7.58791 3.99925 6.74025 3.99925C6.80018 3.47525 6.90606 3.22058 7.2603 2.93658C7.69379 2.58925 7.66516 2.63524 7.8223 2.47858C8.082 2.21791 8.082 1.78058 7.8223 1.51992C7.69179 1.38992 7.514 1.33258 7.34354 1.33258ZM13.3365 5.33258C14.0723 5.33258 14.6682 5.92925 14.6682 6.66591C14.6682 7.40258 14.0723 7.99925 13.3365 7.99925V5.33258Z" fill="#9EA5B3"/>
</svg>
