<svg width="14" height="12" viewBox="0 0 14 12" fill="none" xmlns="http://www.w3.org/2000/svg">
    <path fill-rule="evenodd" clip-rule="evenodd"
        d="M10.244 0.333324C9.92515 0.149229 9.51742 0.258479 9.33333 0.577341L7.53248 3.69651C6.69844 2.59536 5.44417 2.069 4.3326 2.069C2.12326 2.069 0.332596 3.85967 0.332596 6.06901C0.332596 8.12143 1.87793 9.81254 3.86867 10.0424L3.33333 10.9696C3.14923 11.2885 3.25848 11.6962 3.57735 11.8803C3.89621 12.0644 4.30393 11.9552 4.48803 11.6363L5.49689 9.88889L8.4757 4.72945L10.488 1.24401C10.6721 0.925146 10.5629 0.517419 10.244 0.333324ZM10.9993 7.40234L8.47479 7.39767L10.0142 4.73129L13.6659 4.73567V8.73568H11.6659L10.9993 7.40234ZM4.3326 5.40234C4.50326 5.40234 4.68126 5.45968 4.81193 5.58968C5.07193 5.85034 5.07193 6.28767 4.81193 6.54834C4.55126 6.80834 4.11393 6.80834 3.85327 6.54834C3.59327 6.28767 3.59327 5.85034 3.85327 5.58968C3.98393 5.45968 4.16193 5.40234 4.3326 5.40234Z"
        fill="#5A606C" />
</svg>