<svg width="15" height="14" viewBox="0 0 15 14" fill="none" xmlns="http://www.w3.org/2000/svg">
<path fill-rule="evenodd" clip-rule="evenodd" d="M3.5 4.5C4.60457 4.5 5.5 3.60457 5.5 2.5C5.5 1.39543 4.60457 0.5 3.5 0.5C2.39543 0.5 1.5 1.39543 1.5 2.5C1.5 3.60457 2.39543 4.5 3.5 4.5ZM1.41406 4.94727C0.861778 4.94727 0.414062 5.39498 0.414062 5.94727V9.9999C0.414062 10.5522 0.861778 10.9999 1.41406 10.9999H2V12.5C2 13.0523 2.44772 13.5 3 13.5H4C4.55228 13.5 5 13.0523 5 12.5V10.9999H5.46669C6.01898 10.9999 6.46669 10.5522 6.46669 9.9999V5.94727C6.46669 5.39498 6.01898 4.94727 5.46669 4.94727H1.41406ZM9.25 10.9999H8.20359C7.50779 10.9999 7.02467 10.307 7.26529 9.65408L8.7589 5.60145C8.90377 5.20838 9.27828 4.94727 9.6972 4.94727H11.7926C12.2166 4.94727 12.5944 5.21453 12.7356 5.61424L14.1669 9.66687C14.3967 10.3175 13.914 10.9999 13.224 10.9999H12.25V12.5C12.25 13.0523 11.8023 13.5 11.25 13.5H10.25C9.69771 13.5 9.25 13.0523 9.25 12.5V10.9999ZM12.75 2.5C12.75 3.60457 11.8546 4.5 10.75 4.5C9.64543 4.5 8.75 3.60457 8.75 2.5C8.75 1.39543 9.64543 0.5 10.75 0.5C11.8546 0.5 12.75 1.39543 12.75 2.5Z" fill="#5A606C"/>
</svg>
