<svg width="16" height="16" viewBox="0 0 16 16" fill="none" xmlns="http://www.w3.org/2000/svg">
<path d="M5.33252 4.06903C3.12319 4.06903 1.33252 5.8597 1.33252 8.06904C1.33252 10.2784 3.12319 12.069 5.33252 12.069C6.74785 12.069 8.37852 11.2557 9.11585 9.39704L11.9992 9.40237L12.6659 10.7357H14.6659V6.7357L9.11052 6.72904C8.39452 4.92237 6.74785 4.06903 5.33252 4.06903ZM5.33252 7.40237C5.50319 7.40237 5.68118 7.45971 5.81185 7.58971C6.07185 7.85037 6.07185 8.2877 5.81185 8.54837C5.55118 8.80837 5.11386 8.80837 4.85319 8.54837C4.59319 8.2877 4.59319 7.85037 4.85319 7.58971C4.98386 7.45971 5.16185 7.40237 5.33252 7.40237Z" fill="#9EA5B3"/>
</svg>
