<svg width="16" height="16" viewBox="0 0 16 16" fill="none" xmlns="http://www.w3.org/2000/svg">
<path fill-rule="evenodd" clip-rule="evenodd" d="M8.58883 1.7735C8.33807 1.30198 7.66237 1.30198 7.41161 1.7735L5.69905 4.9937C5.59767 5.18434 5.41024 5.31407 5.19611 5.34181L1.93306 5.76456C1.35199 5.83985 1.14368 6.57427 1.5987 6.94342L4.11023 8.98101C4.30486 9.13891 4.39448 9.39262 4.34223 9.63773L3.60328 13.1037C3.48401 13.6631 4.07834 14.1031 4.57858 13.8257L7.67693 12.1077C7.87803 11.9962 8.12241 11.9962 8.32351 12.1077L11.4219 13.8257C11.9221 14.1031 12.5164 13.6631 12.3972 13.1037L11.6582 9.63773C11.606 9.39262 11.6956 9.13891 11.8902 8.98101L14.4017 6.94342C14.8568 6.57427 14.6485 5.83985 14.0674 5.76456L10.8043 5.34181C10.5902 5.31407 10.4028 5.18434 10.3014 4.9937L8.58883 1.7735Z" fill="#9EA5B3"/>
</svg>
